<svg width="55" height="54" viewBox="0 0 55 54" fill="none" xmlns="http://www.w3.org/2000/svg">
<path d="M1.65 29V11.5H7.775L10.8 26.75H11.25L14.275 11.5H20.4V29H17.2V13.925H16.75L13.75 29H8.3L5.3 13.925H4.85V29H1.65ZM28.7209 29.35C26.9209 29.35 25.4876 28.8583 24.4209 27.875C23.3709 26.8917 22.8459 25.5167 22.8459 23.75V22.1H26.1459V23.75C26.1459 24.5333 26.3626 25.15 26.7959 25.6C27.2292 26.0333 27.8376 26.25 28.6209 26.25C29.3542 26.25 29.9209 26.0333 30.3209 25.6C30.7376 25.1667 30.9459 24.55 30.9459 23.75V14.5H27.9459V11.5H36.2459V14.5H34.2459V23.75C34.2459 25.5667 33.7542 26.9583 32.7709 27.925C31.7876 28.875 30.4376 29.35 28.7209 29.35ZM38.9547 29V11.5H42.2547V18.45H42.7047L48.3797 11.5H52.6047L45.3047 20.125L52.8547 29H48.5047L42.7047 21.9H42.2547V29H38.9547ZM0.65 34V41H5.24V39.94H1.81V38.01H4.91V36.95H1.81V35.06H5.19V34H0.65ZM6.22617 34V41H10.7262V39.94H7.38617V34H6.22617ZM11.5387 34V41H16.1287V39.94H12.6987V38.01H15.7987V36.95H12.6987V35.06H16.0787V34H11.5387ZM16.8548 36.71V38.29C16.8548 40.13 17.9548 41.14 19.6748 41.14C21.4448 41.14 22.3648 40.14 22.3648 38.59V38.4H21.2048V38.6C21.2048 39.48 20.7648 40.09 19.6748 40.09C18.6048 40.09 18.0148 39.43 18.0148 38.34V36.66C18.0148 35.61 18.6248 34.91 19.6748 34.91C20.7148 34.91 21.2048 35.51 21.2048 36.4V36.6H22.3648V36.39C22.3648 34.86 21.4048 33.86 19.6748 33.86C17.9348 33.86 16.8548 34.93 16.8548 36.71ZM22.6986 34V35.06H24.8886V41H26.0486V35.06H28.2386V34H22.6986ZM34.2289 36.14C34.2289 34.85 33.3289 34 32.0289 34H29.0289V41H30.1889V38.27H31.4589L32.8489 41H34.1289L32.6389 38.2C33.5889 37.97 34.2289 37.21 34.2289 36.14ZM30.1889 35.06H31.9089C32.6389 35.06 33.0689 35.46 33.0689 36.14C33.0689 36.81 32.6289 37.21 31.9089 37.21H30.1889V35.06ZM35.191 34V41H36.351V34H35.191ZM37.392 36.71V38.29C37.392 40.13 38.492 41.14 40.212 41.14C41.982 41.14 42.902 40.14 42.902 38.59V38.4H41.742V38.6C41.742 39.48 41.302 40.09 40.212 40.09C39.142 40.09 38.552 39.43 38.552 38.34V36.66C38.552 35.61 39.162 34.91 40.212 34.91C41.252 34.91 41.742 35.51 41.742 36.4V36.6H42.902V36.39C42.902 34.86 41.942 33.86 40.212 33.86C38.472 33.86 37.392 34.93 37.392 36.71ZM45.2657 34L43.1957 41H44.4057L44.8757 39.38H47.5057L47.9657 41H49.1757L47.1157 34H45.2657ZM45.1657 38.32L46.1257 34.99H46.2457L47.2157 38.32H45.1657ZM49.9273 34V41H54.4273V39.94H51.0873V34H49.9273Z" fill="#330F38"/>
<g clip-path="url(#clip0_1:18)">
<path d="M0 6.23296H9.64006L11.7919 8.69951L15.3208 4.61695L18.7637 8.61446L22.2926 4.702L25.8216 8.61446L29.2645 4.702L32.7934 8.61446L36.2363 4.702L39.7653 8.69951L43.2942 4.61695L44.5853 6.23296H55V4.5319H45.446L43.2942 1.9803L39.7653 6.06286L36.3224 2.1504L32.7934 5.9778L29.2645 2.1504L25.8216 5.9778L22.2926 2.1504L18.7637 5.9778L15.3208 1.9803L11.7919 6.06286L10.4147 4.5319H0V6.23296Z" fill="#F4B000"/>
</g>
<g clip-path="url(#clip1_1:18)">
<path d="M55 47.9325H45.3599L43.2081 50.399L39.6792 46.3165L36.2363 50.314L32.7074 46.4015L29.1784 50.314L25.7355 46.4015L22.2066 50.314L18.7637 46.4015L15.2347 50.399L11.7058 46.3165L10.4147 47.9325H-1.885e-06V46.2314H9.55399L11.7058 43.6798L15.2347 47.7624L18.6776 43.8499L22.2066 47.6773L25.7355 43.8499L29.1784 47.6773L32.7074 43.8499L36.2363 47.6773L39.6792 43.6798L43.2081 47.7624L44.5853 46.2314H55V47.9325Z" fill="#F4B000"/>
</g>
<defs>
<clipPath id="clip0_1:18">
<rect width="55" height="8.39901" fill="white" transform="matrix(1 0 0 -1 0 8.69951)"/>
</clipPath>
<clipPath id="clip1_1:18">
<rect width="55" height="8.39901" fill="white" transform="translate(55 50.399) rotate(180)"/>
</clipPath>
</defs>
</svg>
